<svg id="Layer_1" data-name="Layer 1" xmlns="http://www.w3.org/2000/svg" xmlns:xlink="http://www.w3.org/1999/xlink" width="130.77" height="54" viewBox="0 0 130.77 54">
  <defs>
    <style>
      .cls-1 {
        fill: none;
      }

      .cls-2 {
        clip-path: url(#clip-path);
      }

      .cls-3 {
        fill: #0c2074;
      }

      .cls-4 {
        fill: #0075c9;
      }
    </style>
    <clipPath id="clip-path">
      <rect class="cls-1" width="130.77" height="54"/>
    </clipPath>
  </defs>
  <title>Opayo_logo_ByE_RGB</title>
  <g class="cls-2">
    <path d="M88.37,51.94A.89.89,0,0,0,89,51.7a.92.92,0,0,0,.24-.68.86.86,0,0,0-.09-.41.67.67,0,0,0-.23-.27,1,1,0,0,0-.33-.13,1.75,1.75,0,0,0-.4,0H86.76v1.77ZM88,49.6a1.19,1.19,0,0,0,.79-.21.76.76,0,0,0,.24-.61,1,1,0,0,0-.08-.43.62.62,0,0,0-.23-.25,1,1,0,0,0-.32-.11,2.61,2.61,0,0,0-.4,0H86.76V49.6Zm-.18-2.21h.34l.35,0,.33,0a.89.89,0,0,1,.26.11,1.27,1.27,0,0,1,.41.42,1.18,1.18,0,0,1,.16.65,1.3,1.3,0,0,1-.18.7,1.2,1.2,0,0,1-.54.45h0a1.13,1.13,0,0,1,.69.43,1.33,1.33,0,0,1,.24.8,1.72,1.72,0,0,1-.1.55,1.4,1.4,0,0,1-.28.47,1.29,1.29,0,0,1-.46.33,1.54,1.54,0,0,1-.63.13H86.11V47.39Z"/>
    <path d="M91.86,53c-.07.18-.14.34-.2.46a1.23,1.23,0,0,1-.22.3.87.87,0,0,1-.26.18,1.16,1.16,0,0,1-.34,0h-.2l-.2-.05v-.56l.17.06.17,0a.49.49,0,0,0,.3-.09.58.58,0,0,0,.17-.25l.24-.63L90.1,48.81h.65l1,3h0l1-3h.61Z"/>
    <path class="cls-3" d="M113.28,28.13a6.9,6.9,0,0,1-6.69-7.1A6.71,6.71,0,1,1,120,21a6.91,6.91,0,0,1-6.7,7.1m0-18.59c-6,0-10.83,5.14-10.83,11.49s4.85,11.48,10.83,11.48S124.11,27.37,124.11,21,119.26,9.54,113.28,9.54"/>
    <path class="cls-3" d="M50.31,21.18c0,4-2.65,7-6.31,7s-6.34-2.92-6.34-6.95c0-4.2,2.65-7.25,6.3-7.25s6.35,3.05,6.35,7.25M44.46,9.54a8.68,8.68,0,0,0-6.64,3V9.8H33.4V42.32h4.42V29.62a8.57,8.57,0,0,0,6.64,2.89c6,0,10.31-4.76,10.31-11.33S50.34,9.54,44.46,9.54"/>
    <path class="cls-3" d="M74.4,21.18c0,4-2.6,7-6.18,7-3.74,0-6.35-2.86-6.35-6.95s2.67-7.25,6.35-7.25S74.4,17,74.4,21.18m-.13-8.63a8.45,8.45,0,0,0-6.55-3c-5.88,0-10.32,5-10.32,11.64s4.34,11.33,10.32,11.33a8.48,8.48,0,0,0,6.68-3v2.73h4.3V9.8H74.27Z"/>
    <polygon class="cls-3" points="85.8 9.8 81.12 9.8 89.43 29.27 91.62 23.51 85.8 9.8"/>
    <path class="cls-3" d="M15.33,27.26C9.6,27.26,5,22.33,5,16.26s4.64-11,10.37-11,10.38,4.93,10.38,11-4.65,11-10.38,11m15.33-11C30.66,7.28,23.8,0,15.33,0S0,7.28,0,16.26,6.86,32.51,15.33,32.51s15.33-7.28,15.33-16.25"/>
    <polygon class="cls-3" points="97.87 9.8 85.56 42.32 90.41 42.32 102.76 9.8 97.87 9.8"/>
    <path d="M125.32,52.53h1.08V48.59c0-1.26.64-2.19,1.95-2.19a1.28,1.28,0,0,1,1.34,1.41v4.72h1.08V47.94c0-1.5-.53-2.55-2.26-2.55a2.25,2.25,0,0,0-2.14,1.27h0V45.55h-1Zm-6.4-3.48c0-1.7.92-2.65,2-2.65s2,1,2,2.65-.92,2.63-2,2.63-2-.94-2-2.63m-1.15,0c0,2,1.11,3.65,3.2,3.65s3.2-1.61,3.2-3.65-1.11-3.66-3.2-3.66-3.2,1.61-3.2,3.66m-.31-3.5h-1.14l-1.79,5.82h0l-1.84-5.82h-1.22l2.45,7h1.16Zm-6.15,6.06a.81.81,0,0,1-.33.07c-.35,0-.35-.24-.35-.78V47.31c0-1.64-1.28-1.92-2.47-1.92-1.46,0-2.73.61-2.79,2.33h1.08c0-1,.73-1.32,1.65-1.32.68,0,1.46.16,1.46,1.16s-1,.79-2.21,1-2.23.57-2.23,2.15c0,1.39,1,2,2.17,2a2.84,2.84,0,0,0,2.32-1.09c0,.76.36,1.09.92,1.09a1.42,1.42,0,0,0,.78-.19Zm-1.76-1.51a1.79,1.79,0,0,1-2,1.58c-.67,0-1.28-.27-1.28-1s.61-1.13,1.33-1.26a5.53,5.53,0,0,0,2-.47Zm-6.69,2.43h1.08V42.89h-1.08Zm-7.56,0h6.31V51.45h-5.1V48.12h4.72V47H96.51V44h5.07V42.89H95.3Z"/>
    <path class="cls-3" d="M122.3,38.18a10.73,10.73,0,0,0,0-1.16c-3.23.29-7.78,2.5-12,6.09-.47.4-.93.81-1.37,1.23h.27l.23-.2c4.43-3.78,9.27-6,12.55-6l.34,0"/>
    <path class="cls-3" d="M125.88,38a3.37,3.37,0,0,0-1.91-.94c0,.46.07,1,.08,1.49a3.15,3.15,0,0,1,1,.69,3.48,3.48,0,0,1,.8,2.64,8.16,8.16,0,0,1-.57,2.44h.18a9.76,9.76,0,0,0,1.2-3.8,3.29,3.29,0,0,0-.77-2.52"/>
    <path class="cls-4" d="M123.22,35.13c-.29-.9-.71-1.36-1.25-1.36h0c-1,0-2.24,1.56-3.48,4.23l.64-.23c.86-1.55,1.68-2.45,2.27-2.45h.06c.33,0,.57.37.71,1,.37,1.63,0,4.83-.94,8.2a3.89,3.89,0,0,1,1.8.54c.7-4.21.82-8,.19-9.94"/>
    <path class="cls-4" d="M117.81,39.61c-.28.7-.56,1.46-.83,2.28s-.52,1.62-.75,2.45h.26a39.74,39.74,0,0,1,1.31-3.76c.16-.4.32-.78.49-1.14l-.48.17"/>
  </g>
</svg>
