<svg width="300" height="300" viewBox="0 0 300 300" fill="none" xmlns="http://www.w3.org/2000/svg">
<g clip-path="url(#clip0_1209_1344)">
<circle cx="149.5" cy="149.5" r="147.5" fill="#E1E3E8"/>
<path d="M194.062 195.307C194.49 195.317 194.905 195.159 195.217 194.867C195.371 194.699 195.489 194.502 195.565 194.288C195.64 194.073 195.672 193.846 195.658 193.619C195.666 193.358 195.609 193.1 195.493 192.867C195.399 192.666 195.253 192.495 195.071 192.371C194.885 192.256 194.68 192.175 194.466 192.133C194.222 192.105 193.976 192.105 193.732 192.133H191.11V195.38L194.062 195.307ZM193.384 191.013C193.897 191.06 194.41 190.923 194.832 190.628C194.985 190.486 195.103 190.312 195.179 190.118C195.255 189.924 195.287 189.716 195.272 189.509C195.282 189.238 195.232 188.969 195.126 188.72C195.031 188.53 194.885 188.371 194.704 188.261C194.521 188.161 194.323 188.092 194.117 188.059C193.873 188.04 193.628 188.04 193.384 188.059H191.11V191.013H193.384ZM193.053 186.958H193.677H194.319H194.924C195.093 186.999 195.254 187.068 195.401 187.16C195.708 187.354 195.966 187.618 196.153 187.931C196.364 188.291 196.465 188.706 196.446 189.123C196.46 189.574 196.345 190.019 196.116 190.408C195.876 190.776 195.531 191.063 195.126 191.233V191.233C195.631 191.33 196.082 191.611 196.391 192.022C196.692 192.452 196.846 192.967 196.831 193.49C196.826 193.835 196.764 194.175 196.648 194.5C196.535 194.818 196.361 195.111 196.134 195.362C195.901 195.624 195.613 195.831 195.291 195.968C194.927 196.128 194.533 196.209 194.135 196.206H189.917V186.958H193.053Z" fill="black"/>
<path d="M200.462 197.252C200.334 197.583 200.206 197.876 200.096 198.096C199.99 198.299 199.854 198.485 199.692 198.647C199.555 198.785 199.393 198.897 199.215 198.977C199.009 199.008 198.799 199.008 198.592 198.977H198.225L197.858 198.885V197.858L198.17 197.968H198.482C198.678 197.975 198.872 197.917 199.032 197.803C199.175 197.68 199.282 197.522 199.344 197.344L199.784 196.188L197.235 189.564H198.427L200.261 195.069L202.095 189.564H203.213L200.462 197.252Z" fill="black"/>
<path d="M239.745 151.617C236.391 151.516 233.215 150.087 230.915 147.644C228.614 145.201 227.377 141.944 227.476 138.589C227.408 136.933 227.675 135.281 228.261 133.732C228.847 132.182 229.739 130.766 230.885 129.57C232.03 128.373 233.405 127.42 234.927 126.768C236.449 126.116 238.088 125.778 239.743 125.774C241.399 125.771 243.039 126.101 244.564 126.747C246.089 127.392 247.468 128.339 248.619 129.53C249.77 130.721 250.669 132.133 251.261 133.68C251.854 135.227 252.128 136.878 252.068 138.534C252.162 141.891 250.921 145.148 248.618 147.59C246.314 150.033 243.136 151.461 239.781 151.562L239.745 151.617ZM239.781 117.45C228.778 117.45 219.92 126.882 219.92 138.534C219.92 150.186 228.814 159.599 239.781 159.599C250.748 159.599 259.606 150.222 259.606 138.534C259.606 126.845 250.711 117.505 239.745 117.505" fill="#0C2074"/>
<path d="M124.264 138.864C124.264 146.204 119.404 151.708 112.692 151.708C105.98 151.708 101.065 146.35 101.065 138.956C101.065 131.249 105.925 125.652 112.618 125.652C119.312 125.652 124.264 131.249 124.264 138.956V138.864ZM113.535 117.505C111.228 117.485 108.944 117.967 106.841 118.917C104.739 119.868 102.868 121.264 101.358 123.01V117.982H93.2523V177.655H101.358V154.351C102.878 156.07 104.756 157.436 106.859 158.352C108.963 159.269 111.242 159.713 113.535 159.654C124.539 159.654 132.443 150.919 132.443 138.864C132.443 126.808 124.319 117.505 113.535 117.505Z" fill="#0C2074"/>
<path d="M168.442 138.864C168.442 146.204 163.674 151.709 157.109 151.709C150.25 151.709 145.464 146.461 145.464 138.956C145.464 131.451 150.36 125.653 157.109 125.653C163.858 125.653 168.442 131.194 168.442 138.864ZM168.204 123.029C166.731 121.282 164.89 119.883 162.814 118.931C160.737 117.98 158.476 117.499 156.192 117.524C145.409 117.524 137.266 126.699 137.266 138.883C137.266 151.067 145.225 159.673 156.192 159.673C158.515 159.729 160.822 159.264 162.942 158.311C165.062 157.359 166.941 155.943 168.442 154.168V159.177H176.328V117.983H168.204V123.029Z" fill="#0C2074"/>
<path d="M189.349 117.982H180.766L196.006 153.709L200.022 143.14L189.349 117.982Z" fill="#0C2074"/>
<path d="M60.1137 150.021C49.6055 150.021 41.1695 140.974 41.1695 129.836C41.1695 118.698 49.6788 109.652 60.1871 109.652C70.6954 109.652 79.223 118.698 79.223 129.836C79.223 140.974 70.6954 150.021 60.1871 150.021H60.1137ZM88.3008 129.836C88.2275 113.358 75.6469 100 60.1137 100C44.5806 100 32 113.358 32 129.836C32 146.314 44.5806 159.654 60.1137 159.654C75.6469 159.654 88.2275 146.296 88.2275 129.836" fill="#0C2074"/>
<path d="M211.484 117.982L188.909 177.655H197.803L220.452 117.982H211.484Z" fill="#0C2074"/>
<path d="M261.825 196.39H263.805V189.16C263.805 186.848 264.979 185.142 267.382 185.142C267.72 185.124 268.058 185.18 268.373 185.306C268.688 185.431 268.972 185.624 269.206 185.869C269.439 186.115 269.617 186.409 269.726 186.73C269.835 187.051 269.874 187.392 269.839 187.729V196.39H271.82V187.968C271.82 185.215 270.848 183.289 267.675 183.289C266.864 183.248 266.059 183.447 265.361 183.861C264.663 184.276 264.103 184.887 263.75 185.619V185.619V183.582H261.916L261.825 196.39ZM250.088 190.004C250.088 186.885 251.775 185.142 253.756 185.142C255.736 185.142 257.423 186.977 257.423 190.004C257.423 193.032 255.736 194.83 253.756 194.83C251.775 194.83 250.088 193.106 250.088 190.004ZM247.979 190.004C247.979 193.674 250.014 196.702 253.847 196.702C257.68 196.702 259.716 193.748 259.716 190.004C259.716 186.261 257.68 183.289 253.847 183.289C250.014 183.289 247.979 186.243 247.979 190.004V190.004ZM247.41 183.582H245.32L242.037 194.262L238.663 183.582H236.425L240.918 196.427H243.046L247.41 183.582ZM236.132 194.702C235.941 194.787 235.735 194.831 235.527 194.83C234.885 194.83 234.885 194.39 234.885 193.399V186.812C234.885 183.802 232.537 183.289 230.355 183.289C227.677 183.289 225.348 184.408 225.238 187.564H227.219C227.219 185.729 228.558 185.142 230.245 185.142C231.492 185.142 232.922 185.435 232.922 187.27C232.922 189.105 231.089 188.72 228.87 189.105C226.651 189.491 224.78 190.151 224.78 193.05C224.78 195.601 226.614 196.72 228.759 196.72C229.576 196.744 230.386 196.575 231.125 196.228C231.864 195.88 232.511 195.364 233.014 194.72C233.014 196.115 233.674 196.72 234.701 196.72C235.202 196.744 235.698 196.623 236.132 196.372V194.702ZM232.904 191.931C232.856 192.364 232.723 192.782 232.512 193.163C232.302 193.544 232.017 193.878 231.676 194.148C231.335 194.418 230.944 194.617 230.525 194.734C230.106 194.851 229.668 194.884 229.236 194.83C228.008 194.83 226.889 194.335 226.889 192.995C226.889 191.656 228.008 190.922 229.328 190.683C230.594 190.628 231.838 190.335 232.996 189.821L232.904 191.931ZM220.635 196.39H222.616V178.701H220.635V196.39ZM206.771 196.39H218.343V194.408H208.99V188.298H217.646V186.243H208.99V180.738H218.288V178.701H206.771V196.39Z" fill="black"/>
<path d="M256.286 170.058C256.325 169.349 256.325 168.639 256.286 167.93C250.363 168.462 242.018 172.517 234.279 179.105C233.417 179.838 232.574 180.591 231.767 181.362H232.262L232.684 180.995C240.808 174.058 249.684 169.985 255.699 169.985H256.323" fill="#0C2074"/>
<path d="M262.852 169.728C261.901 168.79 260.672 168.185 259.349 168.003C259.349 168.847 259.477 169.838 259.496 170.737C260.183 171.036 260.806 171.466 261.33 172.004C261.891 172.668 262.311 173.441 262.563 174.274C262.816 175.107 262.895 175.983 262.797 176.848C262.681 178.385 262.328 179.895 261.751 181.325H262.082C263.287 179.177 264.036 176.803 264.282 174.352C264.378 173.526 264.302 172.688 264.059 171.893C263.816 171.097 263.411 170.36 262.87 169.728" fill="#0C2074"/>
<path d="M257.973 164.462C257.442 162.81 256.671 161.966 255.681 161.966C253.847 161.966 251.573 164.829 249.299 169.728L250.473 169.306C252.05 166.462 253.554 164.81 254.636 164.81H254.746C255.351 164.81 255.791 165.489 256.048 166.645C256.726 169.636 256.048 175.508 254.324 181.692C255.489 181.747 256.622 182.088 257.625 182.683C258.909 174.958 259.129 168.003 257.973 164.443" fill="#0075C9"/>
<path d="M248.052 172.682C247.539 173.967 247.025 175.361 246.53 176.866C246.035 178.37 245.576 179.838 245.155 181.361H245.631C246.316 179.023 247.118 176.72 248.034 174.462C248.327 173.728 248.621 173.031 248.932 172.37L248.052 172.682" fill="#0075C9"/>
</g>
<defs>
<clipPath id="clip0_1209_1344">
<rect width="300" height="300" fill="white"/>
</clipPath>
</defs>
</svg>
